<svg width="148" height="148" viewBox="0 0 148 148" fill="none" xmlns="http://www.w3.org/2000/svg">
<path d="M71.6198 11.2405L4.68353 38.9674V53.3924H143.316V38.8908L71.6198 11.2405ZM134.074 45.4412H13.9257V43.9637L71.759 20.0077L134.074 44.0402V45.4412Z" fill="#999999"/>
<path d="M4.68353 136.76H143.316V113.342H4.68353V136.76ZM13.9257 120.547H134.074V129.554H13.9257V120.547Z" fill="#999999"/>
<path d="M27.1646 59.9495H36.4145V106.199H27.1646V59.9495Z" fill="#999999"/>
<path d="M111.468 59.9495H120.718V106.199H111.468V59.9495Z" fill="#999999"/>
<path d="M85.3495 61.121L85.349 61.1196L83.0113 59.9495V59.4495H83.011H64.052C63.0015 59.4495 62.0669 60.1233 61.7199 61.1212C61.7198 61.1215 61.7197 61.1218 61.7196 61.122L59.8291 66.5108H51.7792C48.7622 66.5108 46.3354 69.0013 46.3354 72.0546V100.804C46.3354 103.858 48.7622 106.348 51.7792 106.348H95.2841C98.3011 106.348 100.728 103.858 100.728 100.804V72.0546C100.728 69.0013 98.3011 66.5108 95.2841 66.5108H87.2346L85.3495 61.121ZM63.3166 72.0502H63.6712L63.7885 71.7157L64.8452 68.702L64.8454 68.7016L66.1434 64.9889H80.9137L82.2118 68.7016L82.2119 68.702L83.2686 71.7157L83.386 72.0502H83.7405H95.2775C95.2777 72.0505 95.2778 72.0507 95.2779 72.051C95.2782 72.0516 95.2785 72.0526 95.2785 72.0546V100.804C95.2785 100.806 95.2782 100.807 95.2779 100.808C95.2778 100.808 95.2777 100.809 95.2775 100.809H51.7858C51.7856 100.809 51.7855 100.808 51.7854 100.808C51.7851 100.807 51.7848 100.806 51.7848 100.804V72.0546C51.7848 72.0526 51.7851 72.0516 51.7854 72.051C51.7855 72.0507 51.7856 72.0505 51.7858 72.0502H63.3166ZM73.5317 75.8419C70.6822 75.8419 68.2587 76.8243 66.5472 78.567C64.8365 80.309 63.8734 82.7737 63.8734 85.6729C63.8734 88.5718 64.8362 91.0534 66.5453 92.8129C68.2557 94.5737 70.6794 95.576 73.5317 95.576C76.384 95.576 78.8062 94.5737 80.5151 92.8127C82.2226 91.0531 83.1838 88.5716 83.1838 85.6729C83.1838 82.7739 82.2223 80.3093 80.5132 78.5672C78.8032 76.8243 76.3811 75.8419 73.5317 75.8419ZM73.5317 91.2255C70.542 91.2255 68.0992 88.7478 68.0992 85.6729C68.0992 82.5981 70.542 80.1204 73.5317 80.1204C76.5213 80.1204 78.9641 82.5981 78.9641 85.6729C78.9641 88.7478 76.5213 91.2255 73.5317 91.2255Z" fill="#999999" stroke="#999999"/>
</svg>
