<svg width="48" height="48" viewBox="0 0 48 48" fill="none" xmlns="http://www.w3.org/2000/svg">
<path fill-rule="evenodd" clip-rule="evenodd" d="M0 24C0 10.7452 10.7452 0 24 0C37.2548 0 48 10.7452 48 24C48 37.2548 37.2548 48 24 48C10.7452 48 0 37.2548 0 24ZM24.0012 11.2C20.5249 11.2 20.0886 11.2152 18.7233 11.2773C17.3606 11.3397 16.4305 11.5555 15.6166 11.872C14.7747 12.1989 14.0606 12.6363 13.3491 13.348C12.6371 14.0595 12.1997 14.7736 11.8717 15.6152C11.5544 16.4294 11.3384 17.3598 11.2771 18.7219C11.216 20.0873 11.2 20.5238 11.2 24.0001C11.2 27.4764 11.2155 27.9114 11.2773 29.2767C11.34 30.6394 11.5557 31.5695 11.872 32.3834C12.1992 33.2253 12.6365 33.9394 13.3483 34.6509C14.0595 35.3629 14.7736 35.8013 15.615 36.1283C16.4294 36.4448 17.3598 36.6605 18.7222 36.7229C20.0876 36.7851 20.5236 36.8003 23.9996 36.8003C27.4762 36.8003 27.9111 36.7851 29.2765 36.7229C30.6391 36.6605 31.5703 36.4448 32.3848 36.1283C33.2264 35.8013 33.9394 35.3629 34.6506 34.6509C35.3626 33.9394 35.8 33.2253 36.128 32.3837C36.4427 31.5695 36.6587 30.6391 36.7227 29.277C36.784 27.9116 36.8 27.4764 36.8 24.0001C36.8 20.5238 36.784 20.0876 36.7227 18.7222C36.6587 17.3595 36.4427 16.4294 36.128 15.6155C35.8 14.7736 35.3626 14.0595 34.6506 13.348C33.9386 12.636 33.2266 12.1987 32.384 11.872C31.5679 11.5555 30.6373 11.3397 29.2746 11.2773C27.9092 11.2152 27.4746 11.2 23.9972 11.2H24.0012Z" fill="#999999"/>
<path fill-rule="evenodd" clip-rule="evenodd" d="M22.8529 13.5066C23.1937 13.5061 23.574 13.5066 24.0012 13.5066C27.4188 13.5066 27.8239 13.5189 29.1735 13.5802C30.4215 13.6373 31.0989 13.8458 31.5501 14.021C32.1474 14.253 32.5733 14.5303 33.021 14.9783C33.469 15.4263 33.7464 15.853 33.9789 16.4504C34.1541 16.901 34.3629 17.5784 34.4197 18.8264C34.481 20.1757 34.4944 20.5811 34.4944 23.9971C34.4944 27.4131 34.481 27.8185 34.4197 29.1678C34.3626 30.4158 34.1541 31.0932 33.9789 31.5438C33.7469 32.1412 33.469 32.5665 33.021 33.0143C32.573 33.4623 32.1477 33.7396 31.5501 33.9716C31.0994 34.1476 30.4215 34.3556 29.1735 34.4127C27.8242 34.474 27.4188 34.4873 24.0012 34.4873C20.5833 34.4873 20.1782 34.474 18.8289 34.4127C17.5809 34.3551 16.9035 34.1465 16.4521 33.9713C15.8547 33.7393 15.428 33.462 14.98 33.014C14.532 32.566 14.2547 32.1404 14.0222 31.5428C13.847 31.0921 13.6382 30.4148 13.5814 29.1668C13.52 27.8174 13.5078 27.4121 13.5078 23.9939C13.5078 20.5757 13.52 20.1725 13.5814 18.8232C13.6384 17.5752 13.847 16.8978 14.0222 16.4466C14.2542 15.8493 14.532 15.4226 14.98 14.9746C15.428 14.5266 15.8547 14.2493 16.4521 14.0167C16.9033 13.8407 17.5809 13.6327 18.8289 13.5754C20.0097 13.5221 20.4673 13.5061 22.8529 13.5034V13.5066ZM30.8338 15.6319C29.9858 15.6319 29.2978 16.3192 29.2978 17.1674C29.2978 18.0154 29.9858 18.7034 30.8338 18.7034C31.6818 18.7034 32.3698 18.0154 32.3698 17.1674C32.3698 16.3194 31.6818 15.6319 30.8338 15.6319ZM24.0012 17.4266C20.371 17.4266 17.4278 20.3699 17.4278 24C17.4278 27.6302 20.371 30.5721 24.0012 30.5721C27.6314 30.5721 30.5735 27.6302 30.5735 24C30.5735 20.3699 27.6314 17.4266 24.0012 17.4266Z" fill="#999999"/>
<path fill-rule="evenodd" clip-rule="evenodd" d="M24.0012 19.7334C26.3575 19.7334 28.2679 21.6436 28.2679 24.0001C28.2679 26.3564 26.3575 28.2668 24.0012 28.2668C21.6446 28.2668 19.7345 26.3564 19.7345 24.0001C19.7345 21.6436 21.6446 19.7334 24.0012 19.7334Z" fill="#999999"/>
</svg>
