<svg width="45" height="48" viewBox="0 0 45 48" fill="none" xmlns="http://www.w3.org/2000/svg">
<path d="M6.44055 42L9.46434 34.4C7.15098 30.8161 6.11557 26.4341 6.55242 22.0762C6.98927 17.7184 8.86835 13.6843 11.837 10.731C14.8057 7.7778 18.6599 6.10843 22.6762 6.0362C26.6926 5.96397 30.5951 7.49385 33.6513 10.3387C36.7075 13.1836 38.7074 17.148 39.2756 21.4877C39.8437 25.8275 38.9412 30.2444 36.7373 33.9095C34.5334 37.5747 31.1796 40.236 27.3054 41.3942C23.4312 42.5524 19.3029 42.1278 15.6952 40.2L6.44055 42Z" stroke="#999999" stroke-width="3" stroke-linecap="round" stroke-linejoin="round"/>
<path d="M17.4362 20C17.4362 20.2652 17.5327 20.5196 17.7045 20.7071C17.8764 20.8946 18.1094 21 18.3525 21C18.5955 21 18.8285 20.8946 19.0004 20.7071C19.1722 20.5196 19.2688 20.2652 19.2688 20V18C19.2688 17.7348 19.1722 17.4804 19.0004 17.2929C18.8285 17.1054 18.5955 17 18.3525 17C18.1094 17 17.8764 17.1054 17.7045 17.2929C17.5327 17.4804 17.4362 17.7348 17.4362 18V20ZM17.4362 20C17.4362 22.6522 18.4015 25.1957 20.1199 27.0711C21.8383 28.9464 24.169 30 26.5992 30H28.4318C28.6748 30 28.9078 29.8946 29.0797 29.7071C29.2515 29.5196 29.3481 29.2652 29.3481 29C29.3481 28.7348 29.2515 28.4804 29.0797 28.2929C28.9078 28.1054 28.6748 28 28.4318 28H26.5992C26.3561 28 26.1231 28.1054 25.9512 28.2929C25.7794 28.4804 25.6829 28.7348 25.6829 29C25.6829 29.2652 25.7794 29.5196 25.9512 29.7071C26.1231 29.8946 26.3561 30 26.5992 30" stroke="#999999" stroke-width="3" stroke-linecap="round" stroke-linejoin="round"/>
</svg>
